<svg width="44.0004158mm" height="24.00008583mm" version="1.1" viewBox="0 0 44.00041603 24.000086" xmlns="http://www.w3.org/2000/svg" xmlns:xlink="http://www.w3.org/1999/xlink">
    <path d="m6.000150553 7.509899969e-8c-3.266052188 1.993379228e-4 -5.999951215 2.734098366-6.000150553 6.000150553v12.00030111c1.993379228e-4 3.266052188 2.734098366 5.999434451 6.000150553 5.999633789 2.540379231-1.550477121e-4 4.713986603-1.669594592 5.574336751-3.941361491l2.183329264 2.183846029c2.228130023 2.227852779 5.903841358 2.305830743 8.234122721 0.2351277669 1.05973134 0.9480226436 2.461868141 1.522387695 4.008540853 1.522387695h9.999906413c3.787975998-3.787407915e-4 7.999460388-2.318030552 8.000028483-8.000028483v-1.99987793c0-1.514737599-0.6240184392-2.909373699-1.46916097-4.167704264 0.8804038542-1.043167984 1.46916097-2.348198332 1.46916097-3.832324219 0-3.333878306-2.666272248-6.000150553-6.000150553-6.000150553h-9.999906413c-1.981980147 1.98168291e-4 -3.887109323 0.8658338871-5.341276042 2.222086589-0.1293414932-0.1604622239-0.268092632-0.3156164797-0.4165120443-0.464054362-1.123764509-1.124121141-2.651072892-1.757578644-4.240568034-1.758032227a4.0004 4.0004 0 0 0-0.001550292969 0c-1.590029866 4.283561578e-5 -3.118492516 0.6335330279-4.242635091 1.758032227l-2.183329264 2.183846029c-0.8603501487-2.271766899-3.03395752-3.941723207-5.574336751-3.941878255zm0 4.000272624a2 2 0 0 1 1.99987793 1.99987793v4.000272624h3.171899414l5.414139811-5.414139811a2 2 0 0 1 1.414383952-0.5860107422 2 2 0 0 1 1.413867188 0.5860107422 2 2 0 0 1 0 2.828251139l-4.585766602 4.585766602 4.585766602 4.585766602a2 2 0 0 1 0 2.828251139 2 2 0 0 1-2.828251139 0l-5.414139811-5.414139811h-3.171899414v4.000272624a2 2 0 0 1-1.99987793 1.99987793 2 2 0 0 1-1.99987793-1.99987793v-12.00030111a2 2 0 0 1 1.99987793-1.99987793zm22.00020752 0h9.999906413c1.10456729 0 1.99987793 0.8953106396 1.99987793 1.99987793 0 1.10456729-0.8953106396 1.99987793-1.99987793 1.99987793h-8.999967448c-0.5010990327 0-0.9999389648 0.4977841062-0.9999389648 1.000455729 0 0.4979352151 0.496994676 0.9999389648 0.9999389648 0.9999389648h7.000089518c1.999469498 1.999169638e-4 3.999755859 1.997970046 3.999755859 3.999755859v1.99987793c-3.105114359e-4 3.105580103-2.000175284 4.000072696-3.999755859 4.000272624h-9.999906413c-1.10456729 0-2.000394694-0.8953106396-2.000394694-1.99987793 0-1.10456729 0.8958274039-2.000394694 2.000394694-2.000394694h8.999967448c0.506790852 0 0.9999389648-0.503259754 0.9999389648-0.9999389648 0-0.5026514395-0.496994676-0.9999389648-0.9999389648-0.9999389648h-7.000089518c-1.997241442-1.996941916e-4 -4.000072696-2.000175569-4.000272624-3.999755859v-2.000394694c1.999151906e-4 -1.999451764 2.008878457-3.99955675 4.000272624-3.999755859z" color="#000000" stroke-linecap="round" stroke-linejoin="round" style="-inkscape-stroke:none;paint-order:stroke fill markers"/>
</svg>
